<?xml version="1.0" encoding="UTF-8" standalone="no"?>
<!-- Created with bare hands and raw skill. -->
<svg xmlns="http://www.w3.org/2000/svg" width="16" height="16">
  <rect y="4" width="15" height="12"
    fill="#8a0"/>
  <path d="M 7,8
    L 4,8    A 1.5 1.5 0 1 1 4,5
    L 7,5    A 2.5 2.5 0 1 1 7,10
    L 2.5,10 A 2.5 2.5 0 0 1 0,7.5
    L 0,3    A 2.5 2.5 0 1 1 5,3
    L 5,4    L 4,4
    L 4,3    A 1.5 1.5 0 1 0 1,3
    L 1,7.5  A 1.5 1.5 0 0 0 2.5,9
    L 7,9    A 1.5 1.5 0 1 0 7,6
    L 4,6    A 0.5 0.5 0 1 0 4,7
    L 7,7    L 7,8"
    transform="translate(6)" fill="#344"/>
</svg>